<?xml version="1.0" encoding="iso-8859-1"?>
<!-- Generator: Adobe Illustrator 16.0.0, SVG Export Plug-In . SVG Version: 6.00 Build 0)  -->
<!DOCTYPE svg PUBLIC "-//W3C//DTD SVG 1.1//EN" "http://www.w3.org/Graphics/SVG/1.1/DTD/svg11.dtd">
<svg version="1.1" id="Capa_1" xmlns="http://www.w3.org/2000/svg" xmlns:xlink="http://www.w3.org/1999/xlink" x="0px" y="0px"
	 width="27.857px" height="27.857px" viewBox="0 0 27.857 27.857" style="enable-background:new 0 0 27.857 27.857;"
	 xml:space="preserve">
<g>
	<g>
		<circle cx="10.548" cy="1.303" r="0.693"/>
		<circle cx="10.548" cy="4.074" r="0.693"/>
		<circle cx="17.312" cy="1.303" r="0.692"/>
		<circle cx="17.312" cy="4.074" r="0.693"/>
		<rect x="14.709" y="16.968" width="0.411" height="8.905"/>
		<rect x="13.529" y="16.968" width="0.411" height="8.905"/>
		<path d="M19.186,17.208c0.408-0.63,0.66-1.351,0.66-2.132c0-2.301-2.037-4.164-4.595-4.279v-0.021V5.017
			c0.812-0.464,1.366-1.326,1.367-2.329C16.618,1.203,15.412,0,13.929,0c-1.484,0-2.69,1.204-2.69,2.69
			c0.001,1,0.555,1.864,1.366,2.327l0.001,5.758v0.022c-2.558,0.116-4.594,1.979-4.594,4.279c0,0.778,0.251,1.5,0.66,2.132
			c-1.705,1.079-2.812,2.795-2.811,4.733c0,2.033,1.216,3.821,3.063,4.885v-5.799l1.802-1.396v7.935
			c0.115,0.031,0.231,0.06,0.349,0.086v-8.73l-0.958,0.742v-2.123l2.44,1.395v8.907c0.017,0.001,0.032,0.003,0.049,0.004v0.011
			h0.271V16.044h2.893V27.81c0.091-0.009,0.183-0.017,0.271-0.026v-8.447l2.893,0.697v6.793c1.847-1.063,3.062-2.851,3.062-4.883
			C21.997,20.003,20.891,18.287,19.186,17.208z"/>
	</g>
</g>
<g>
</g>
<g>
</g>
<g>
</g>
<g>
</g>
<g>
</g>
<g>
</g>
<g>
</g>
<g>
</g>
<g>
</g>
<g>
</g>
<g>
</g>
<g>
</g>
<g>
</g>
<g>
</g>
<g>
</g>
</svg>
